<svg width="24" height="24" viewBox="0 0 24 24" fill="none" xmlns="http://www.w3.org/2000/svg">
<path d="M19.5 10V8.4C19.5 4.86538 16.1421 2 12 2C7.85786 2 4.5 4.86538 4.5 8.4V10" stroke="#212121" stroke-width="1.5" stroke-linecap="round"/>
<path d="M18 12C18 10.8954 18.8954 10 20 10C21.1046 10 22 10.8954 22 12V14C22 15.1046 21.1046 16 20 16C18.8954 16 18 15.1046 18 14V12Z" stroke="#212121" stroke-width="1.5" stroke-linejoin="round"/>
<path d="M2 12C2 10.8954 2.89543 10 4 10C5.10457 10 6 10.8954 6 12V14C6 15.1046 5.10457 16 4 16C2.89543 16 2 15.1046 2 14V12Z" stroke="#212121" stroke-width="1.5" stroke-linejoin="round"/>
<path d="M10 20C10 19.4477 10.4477 19 11 19H13C13.5523 19 14 19.4477 14 20V20C14 21.1046 13.1046 22 12 22V22C10.8954 22 10 21.1046 10 20V20Z" stroke="#212121" stroke-width="1.5" stroke-linejoin="round"/>
<path d="M4.5 16C4.5 18.4615 6.36364 20.5 10 20.5" stroke="#212121" stroke-width="1.5" stroke-linecap="round" stroke-linejoin="round"/>
<path d="M9.5 8.51981C9.5 7.12816 10.6193 6 12 6C13.3807 6 14.5 7.12816 14.5 8.51981C14.5 9.37691 13.5517 10.1341 12.8232 10.5893C12.3385 10.8921 12 11.4165 12 12" stroke="#212121" stroke-width="1.5" stroke-linecap="round" stroke-linejoin="round"/>
<path d="M12 14.8999V14.9999" stroke="#212121" stroke-width="1.5" stroke-linecap="round" stroke-linejoin="round"/>
</svg>
